<?xml version="1.0" encoding="utf-8"?>
<!-- Svg Vector Icons : http://www.sfont.cn -->
<!DOCTYPE svg PUBLIC "-//W3C//DTD SVG 1.1//EN" "http://www.w3.org/Graphics/SVG/1.1/DTD/svg11.dtd">
<svg version="1.1" xmlns="http://www.w3.org/2000/svg" xmlns:xlink="http://www.w3.org/1999/xlink" x="0px" y="0px" viewBox="0 0 1000 1000" enable-background="new 0 0 1000 1000" xml:space="preserve">
<metadata> Svg Vector Icons : http://www.sfont.cn </metadata>
<g><g transform="translate(0.000000,511.000000) scale(0.100000,-0.100000)"><path d="M3906.1,4956.6c-114.9-57.5-188.8-137.5-240.1-260.6c-36.9-90.3-43.1-634.2-8.2-763.5c14.4-55.4,59.5-117,133.4-190.9l110.8-106.7v-242.2v-242.2L3427.9,2383c-260.6-420.7-492.6-812.7-517.2-870.2l-45.2-104.7v-2893.8c0-2752.2,2.1-2897.9,36.9-2961.6c61.6-112.9,180.6-229.9,289.4-287.3l104.7-55.4h1693.2c1689.1,0,1693.2,0,1787.6,43.1c123.1,57.5,256.5,190.9,314,314l43.1,94.4V-1496v2842.5l-49.3,133.4c-26.7,73.9-254.5,465.9-517.2,894.8l-470,761.4v256.5v256.6l80.1,63.6c145.7,117,166.2,190.9,166.2,597.2c0,307.9-4.1,363.3-39,431c-53.3,102.6-186.8,219.6-283.2,246.3c-49.2,14.4-426.9,22.6-1044.6,22.6h-964.6L3906.1,4956.6z M5985.1,4312.2v-338.6l-117-6.2c-110.8-6.2-119-10.3-121.1-55.4c-2.1-69.8-2.1-484.4,0-701.9l2-180.6l463.8-749.1c256.5-412.5,488.5-794.3,519.3-851.7l53.3-102.6v-2826.1v-2828.1l-57.5-55.4l-55.4-57.5l-1627.5-6.2c-1126.8-4.1-1648,0-1701.4,16.4c-149.8,43.1-139.6-172.4-139.6,2930.8c0,2077,6.2,2807.6,24.6,2858.9c12.3,39,248.3,435.1,523.3,880.4l498.7,810.7v455.6v455.6l-127.2,6.2l-129.3,6.2l-6.2,316.1c-4.1,215.5,2,324.3,18.5,342.8c20.5,24.6,184.7,28.7,1001.5,24.6l976.9-6.2V4312.2z"/></g></g>
</svg>