<?xml version="1.0" standalone="no"?><!DOCTYPE svg PUBLIC "-//W3C//DTD SVG 1.1//EN" "http://www.w3.org/Graphics/SVG/1.1/DTD/svg11.dtd"><svg t="1522476345222" class="icon" style="" viewBox="0 0 1024 1024" version="1.1" xmlns="http://www.w3.org/2000/svg" p-id="1540" xmlns:xlink="http://www.w3.org/1999/xlink" width="200" height="200"><defs><style type="text/css"></style></defs><path d="M654.3 280.4c-22.1-29.7-29.2-48.6-31.4-55.8-0.6-2.1-2.5-3.4-4.6-3.4H405.7c-2.2 0-4 1.3-4.6 3.4-2.1 7.3-9.2 26.1-31.4 55.8 0 0-21.4 37.2-21.4 101.8 0 56.4 1.4 308.5 1.8 372.3 0.1 10.3 5.9 19.6 15.2 24.2 20.3 9.9 63.8 24.1 146.7 24.1s126.4-14.2 146.7-24.1c9.3-4.5 15.1-13.8 15.2-24.2 0.4-63.8 1.8-316 1.8-372.3 0-64.7-21.4-101.8-21.4-101.8z" fill="#ffffff" p-id="1541" data-spm-anchor-id="a313x.7781069.0.i5" class="selected"></path><path d="M317.1 316.1L330 298c13-18.2 43.2-71.6 45.5-77.3 2.1-6.4 8.6-11 16-11h241c7.4 0 13.9 4.5 16.1 11.3 2.3 5.7 32.2 59.3 44.8 77l12.9 18.1H317.1z" fill="#ffffff" p-id="1542" data-spm-anchor-id="a313x.7781069.0.i4" class=""></path><path d="M632.5 221.1c2.4 0 4.6 1.3 5.3 3.4 1.8 5.5 33.3 61.8 46.3 80.1H339.3c13.1-18.3 45.1-74.6 46.9-80.1 0.7-2.1 2.8-3.4 5.3-3.4h241m0-22.8h-241c-12 0-22.6 7.3-26.6 18.2-3.6 7.9-32.2 58.2-44.1 74.9L295 327.5H728.6l-25.8-36.1c-11.6-16.2-39.9-66.8-43.5-74.8-4.2-11-14.8-18.3-26.8-18.3z" fill="#e98f36" p-id="1543" data-spm-anchor-id="a313x.7781069.0.i12" class=""></path><path d="M622.1 221.1s-10.6 22.1 32.2 59.2c0 0 21.4 37.2 21.4 101.8 0 57.3-1.5 317.1-1.8 375.4 0 8.2-4.5 15.5-11.7 19.3-18.6 9.9-62.2 25.9-150.2 25.9s-131.6-16-150.2-25.9c-7.2-3.8-11.7-11.2-11.7-19.3-0.3-58.3-1.8-318.1-1.8-375.4 0-64.7 21.4-101.8 21.4-101.8 43.9-40 32.2-59.2 32.2-59.2h220.2m0.1-57.1H401.9c-20.6 0-39.6 11.1-49.8 29.1-5.3 9.5-7.8 20.1-7.3 30.6-2.3 3.1-6.5 7.9-13.6 14.4-4.4 4-8.1 8.6-11 13.7-3 5.2-29 52.6-29 130.3 0 57.8 1.5 323.1 1.8 375.7 0.2 29.1 16.2 55.7 41.9 69.4 27.9 15 81.2 32.8 177.1 32.8s149.2-17.8 177.1-32.7c25.7-13.7 41.7-40.3 41.9-69.4 0.3-52.6 1.8-317.9 1.8-375.7 0-77.7-26.1-125.2-29-130.3-3.2-5.5-7.3-10.5-12.1-14.6-6.7-5.8-10.5-10.2-12.6-12.9 0.1-1.1 0.1-2.1 0.1-3.2 0.1-31.6-25.5-57.2-57-57.2z m-0.1 114.2z" fill="#e98f36" p-id="1544" data-spm-anchor-id="a313x.7781069.0.i11" class=""></path><path d="M512 512m-58.6 0a58.6 58.6 0 1 0 117.2 0 58.6 58.6 0 1 0-117.2 0Z" fill="#ffffff" p-id="1545" data-spm-anchor-id="a313x.7781069.0.i8" class="selected"></path><path d="M499.5 569.2c13.7-51.6-7.1-56.2-7-75.8 0.1-21.1 7.4-31 12.1-41.3l-42.1 5.6-22.4 70.4 35.2 50.4 24.2-9.3z" fill="#ffffff" p-id="1546" data-spm-anchor-id="a313x.7781069.0.i9" class="selected"></path><path d="M524.3 452.8c-24 35.3-1.1 56.4 2.1 75.4 3.1 18.7-3.5 32.4-9.7 42.4l43.9-7 22.4-70.4-35.2-50.4-23.5 10z" fill="#ffffff" p-id="1547" data-spm-anchor-id="a313x.7781069.0.i7" class="selected"></path><path d="M512 453.4c32.4 0 58.6 26.2 58.6 58.6s-26.2 58.6-58.6 58.6-58.6-26.2-58.6-58.6 26.2-58.6 58.6-58.6m0-22.8c-44.9 0-81.4 36.5-81.4 81.4s36.5 81.4 81.4 81.4 81.4-36.5 81.4-81.4-36.5-81.4-81.4-81.4z" fill="#ffffff" p-id="1548" data-spm-anchor-id="a313x.7781069.0.i6" class="selected"></path><path d="M512 814.3c-82.7 0-128.2-13.8-151.7-25.3-13.2-6.5-21.5-19.7-21.6-34.4v-33.2l-0.1-15.2 14.6 4.2c39.7 11.4 99.5 24.9 158.8 24.9 58.4 0 113-8.8 158-25.5l15.5-5.7s-0.2 42.3-0.2 50.5h0.1c0 6.1-0.1 12.4-3.6 15.8-3.7 8.1-10 14.6-18 18.5-23.6 11.6-69.1 25.4-151.8 25.4z" fill="#ffffff" p-id="1549" data-spm-anchor-id="a313x.7781069.0.i10" class="selected"></path><path d="M673.9 720.5c-0.1 13.1-0.1 28.3-0.1 36.1-0.8 9.5-6.5 17.8-15.1 22.1-20.3 9.9-63.8 24.1-146.7 24.1-82.9 0-126.4-14.2-146.7-24.1-9.3-4.5-15.1-13.8-15.2-24.2v-33.2c41.1 11.8 101.9 25.3 161.9 25.3 62.9 0.1 117.6-9.6 161.9-26.1m0 34.1c0 5.1-0.1 7.3-0.1 7.3v-5.2c0.1-0.7 0.1-1.4 0.1-2.1m23.1-66.9l-31 11.5c-43.7 16.2-97 24.8-154 24.8-58 0-116.7-13.3-155.7-24.4l-29.3-8.4 0.2 30.5v33.2c0.1 19.1 10.8 36.1 28 44.5 24.6 12.1 71.9 26.5 156.8 26.5s132.1-14.4 156.8-26.5c10.4-5.1 18.6-13.6 23.3-23.8 3.1-4.9 4.6-11.9 4.7-20.7h-0.1c0-8.2 0-22 0.1-34l0.2-33.2z" fill="#e98f36" p-id="1550" data-spm-anchor-id="a313x.7781069.0.i13" class=""></path></svg>